<mxfile host="app.diagrams.net" agent="Mozilla/5.0 (X11; Ubuntu; Linux x86_64; rv:128.0) Gecko/20100101 Firefox/128.0" version="24.7.4">
  <diagram name="Page-1" id="pzf2gnPvphk5-AIPB_D_">
    <mxGraphModel dx="2074" dy="1153" grid="1" gridSize="10" guides="1" tooltips="1" connect="1" arrows="1" fold="1" page="1" pageScale="1" pageWidth="850" pageHeight="1100" math="0" shadow="0">
      <root>
        <mxCell id="0" />
        <mxCell id="1" parent="0" />
        <mxCell id="mXsQpWE-HHdo5HLymEHP-6" value="" style="group" vertex="1" connectable="0" parent="1">
          <mxGeometry y="330" width="190" height="110" as="geometry" />
        </mxCell>
        <mxCell id="mXsQpWE-HHdo5HLymEHP-1" value="" style="rounded=0;whiteSpace=wrap;html=1;" vertex="1" parent="mXsQpWE-HHdo5HLymEHP-6">
          <mxGeometry width="160" height="80" as="geometry" />
        </mxCell>
        <mxCell id="mXsQpWE-HHdo5HLymEHP-3" value="" style="rounded=0;whiteSpace=wrap;html=1;" vertex="1" parent="mXsQpWE-HHdo5HLymEHP-6">
          <mxGeometry x="10" y="10" width="160" height="80" as="geometry" />
        </mxCell>
        <mxCell id="mXsQpWE-HHdo5HLymEHP-4" value="" style="rounded=0;whiteSpace=wrap;html=1;" vertex="1" parent="mXsQpWE-HHdo5HLymEHP-6">
          <mxGeometry x="20" y="20" width="160" height="80" as="geometry" />
        </mxCell>
        <mxCell id="mXsQpWE-HHdo5HLymEHP-5" value="" style="rounded=0;whiteSpace=wrap;html=1;" vertex="1" parent="mXsQpWE-HHdo5HLymEHP-6">
          <mxGeometry x="30" y="30" width="160" height="80" as="geometry" />
        </mxCell>
        <mxCell id="mXsQpWE-HHdo5HLymEHP-2" value="Third Party pricing Service 1" style="text;html=1;align=center;verticalAlign=middle;whiteSpace=wrap;rounded=0;" vertex="1" parent="mXsQpWE-HHdo5HLymEHP-6">
          <mxGeometry x="60" y="55" width="100" height="30" as="geometry" />
        </mxCell>
        <mxCell id="mXsQpWE-HHdo5HLymEHP-32" value="" style="edgeStyle=orthogonalEdgeStyle;rounded=0;orthogonalLoop=1;jettySize=auto;html=1;entryX=0.5;entryY=0;entryDx=0;entryDy=0;" edge="1" parent="1" source="mXsQpWE-HHdo5HLymEHP-7" target="mXsQpWE-HHdo5HLymEHP-25">
          <mxGeometry relative="1" as="geometry">
            <mxPoint x="430" y="690" as="targetPoint" />
            <Array as="points">
              <mxPoint x="360" y="660" />
              <mxPoint x="360" y="660" />
            </Array>
          </mxGeometry>
        </mxCell>
        <mxCell id="mXsQpWE-HHdo5HLymEHP-7" value="" style="rounded=0;whiteSpace=wrap;html=1;dashed=1;dashPattern=8 8;" vertex="1" parent="1">
          <mxGeometry x="300" y="280" width="260" height="330" as="geometry" />
        </mxCell>
        <mxCell id="mXsQpWE-HHdo5HLymEHP-8" value="" style="edgeStyle=orthogonalEdgeStyle;rounded=0;orthogonalLoop=1;jettySize=auto;html=1;entryX=0;entryY=0.25;entryDx=0;entryDy=0;exitX=1;exitY=0.25;exitDx=0;exitDy=0;" edge="1" parent="1" source="mXsQpWE-HHdo5HLymEHP-5" target="mXsQpWE-HHdo5HLymEHP-10">
          <mxGeometry relative="1" as="geometry" />
        </mxCell>
        <mxCell id="mXsQpWE-HHdo5HLymEHP-9" value="Price MS" style="text;html=1;align=center;verticalAlign=middle;whiteSpace=wrap;rounded=0;" vertex="1" parent="1">
          <mxGeometry x="400" y="300" width="60" height="30" as="geometry" />
        </mxCell>
        <mxCell id="mXsQpWE-HHdo5HLymEHP-14" value="" style="edgeStyle=orthogonalEdgeStyle;rounded=0;orthogonalLoop=1;jettySize=auto;html=1;" edge="1" parent="1" source="mXsQpWE-HHdo5HLymEHP-10" target="mXsQpWE-HHdo5HLymEHP-11">
          <mxGeometry relative="1" as="geometry" />
        </mxCell>
        <mxCell id="mXsQpWE-HHdo5HLymEHP-16" value="" style="edgeStyle=orthogonalEdgeStyle;rounded=0;orthogonalLoop=1;jettySize=auto;html=1;" edge="1" parent="1" source="mXsQpWE-HHdo5HLymEHP-10" target="mXsQpWE-HHdo5HLymEHP-15">
          <mxGeometry relative="1" as="geometry" />
        </mxCell>
        <mxCell id="mXsQpWE-HHdo5HLymEHP-10" value="Process Request/ Response" style="rounded=0;whiteSpace=wrap;html=1;" vertex="1" parent="1">
          <mxGeometry x="370" y="360" width="120" height="80" as="geometry" />
        </mxCell>
        <mxCell id="mXsQpWE-HHdo5HLymEHP-28" value="" style="rounded=0;orthogonalLoop=1;jettySize=auto;html=1;edgeStyle=orthogonalEdgeStyle;" edge="1" parent="1" source="mXsQpWE-HHdo5HLymEHP-11" target="mXsQpWE-HHdo5HLymEHP-26">
          <mxGeometry relative="1" as="geometry">
            <mxPoint x="430" y="620" as="targetPoint" />
          </mxGeometry>
        </mxCell>
        <mxCell id="mXsQpWE-HHdo5HLymEHP-11" value="Calculate prices internaly" style="rounded=0;whiteSpace=wrap;html=1;" vertex="1" parent="1">
          <mxGeometry x="370" y="480" width="120" height="60" as="geometry" />
        </mxCell>
        <mxCell id="mXsQpWE-HHdo5HLymEHP-13" value="" style="edgeStyle=orthogonalEdgeStyle;rounded=0;orthogonalLoop=1;jettySize=auto;html=1;startArrow=classic;startFill=1;endArrow=none;endFill=0;entryX=0;entryY=0.75;entryDx=0;entryDy=0;exitX=1;exitY=0.75;exitDx=0;exitDy=0;" edge="1" parent="1" source="mXsQpWE-HHdo5HLymEHP-5" target="mXsQpWE-HHdo5HLymEHP-10">
          <mxGeometry relative="1" as="geometry" />
        </mxCell>
        <mxCell id="mXsQpWE-HHdo5HLymEHP-18" value="" style="rounded=0;orthogonalLoop=1;jettySize=auto;html=1;" edge="1" parent="1" source="mXsQpWE-HHdo5HLymEHP-15" target="mXsQpWE-HHdo5HLymEHP-17">
          <mxGeometry relative="1" as="geometry" />
        </mxCell>
        <mxCell id="mXsQpWE-HHdo5HLymEHP-21" value="" style="rounded=0;orthogonalLoop=1;jettySize=auto;html=1;entryX=0;entryY=0.5;entryDx=0;entryDy=0;" edge="1" parent="1" source="mXsQpWE-HHdo5HLymEHP-15" target="mXsQpWE-HHdo5HLymEHP-22">
          <mxGeometry relative="1" as="geometry" />
        </mxCell>
        <mxCell id="mXsQpWE-HHdo5HLymEHP-24" value="" style="edgeStyle=orthogonalEdgeStyle;rounded=0;orthogonalLoop=1;jettySize=auto;html=1;entryX=0;entryY=0.5;entryDx=0;entryDy=0;" edge="1" parent="1" source="mXsQpWE-HHdo5HLymEHP-15" target="mXsQpWE-HHdo5HLymEHP-20">
          <mxGeometry relative="1" as="geometry">
            <mxPoint x="860" y="400" as="targetPoint" />
          </mxGeometry>
        </mxCell>
        <mxCell id="mXsQpWE-HHdo5HLymEHP-15" value="CORE" style="rounded=0;whiteSpace=wrap;html=1;" vertex="1" parent="1">
          <mxGeometry x="660" y="360" width="120" height="80" as="geometry" />
        </mxCell>
        <mxCell id="mXsQpWE-HHdo5HLymEHP-17" value="Web" style="rounded=0;whiteSpace=wrap;html=1;" vertex="1" parent="1">
          <mxGeometry x="970" y="180" width="120" height="80" as="geometry" />
        </mxCell>
        <mxCell id="mXsQpWE-HHdo5HLymEHP-20" value="App" style="rounded=0;whiteSpace=wrap;html=1;" vertex="1" parent="1">
          <mxGeometry x="970" y="360" width="120" height="80" as="geometry" />
        </mxCell>
        <mxCell id="mXsQpWE-HHdo5HLymEHP-22" value="Hub" style="rounded=0;whiteSpace=wrap;html=1;" vertex="1" parent="1">
          <mxGeometry x="970" y="510" width="120" height="80" as="geometry" />
        </mxCell>
        <mxCell id="mXsQpWE-HHdo5HLymEHP-25" value="Oracle" style="shape=datastore;whiteSpace=wrap;html=1;" vertex="1" parent="1">
          <mxGeometry x="330" y="670" width="60" height="60" as="geometry" />
        </mxCell>
        <mxCell id="mXsQpWE-HHdo5HLymEHP-26" value="Mongo" style="shape=datastore;whiteSpace=wrap;html=1;" vertex="1" parent="1">
          <mxGeometry x="510" y="650" width="60" height="60" as="geometry" />
        </mxCell>
      </root>
    </mxGraphModel>
  </diagram>
</mxfile>
